<svg width="200" height="200" viewBox="0 0 200 200" fill="none" xmlns="http://www.w3.org/2000/svg">
<rect y="57" width="200" height="86" fill="#F9F9F9"/>
<rect x="7.5" y="65.5" width="185" height="69" stroke="#1A1748"/>
<rect x="7.5" y="65.5" width="185" height="16" fill="#1A1748" stroke="#1A1748"/>
<path d="M20.5 77H18.7045V71.1818H20.5795C21.1439 71.1818 21.6269 71.2983 22.0284 71.5312C22.4299 71.7623 22.7377 72.0947 22.9517 72.5284C23.1657 72.9602 23.2727 73.4773 23.2727 74.0795C23.2727 74.6856 23.1648 75.2074 22.9489 75.6449C22.733 76.0805 22.4186 76.4157 22.0057 76.6506C21.5928 76.8835 21.0909 77 20.5 77ZM19.4091 76.375H20.4545C20.9356 76.375 21.3343 76.2822 21.6506 76.0966C21.9669 75.911 22.2027 75.6468 22.358 75.304C22.5133 74.9612 22.5909 74.553 22.5909 74.0795C22.5909 73.6098 22.5142 73.2055 22.3608 72.8665C22.2074 72.5256 21.9782 72.2642 21.6733 72.0824C21.3684 71.8987 20.9886 71.8068 20.5341 71.8068H19.4091V76.375ZM29.3636 74.0909C29.3636 74.7045 29.2528 75.2348 29.0312 75.6818C28.8097 76.1288 28.5057 76.4735 28.1193 76.7159C27.733 76.9583 27.2917 77.0795 26.7955 77.0795C26.2992 77.0795 25.858 76.9583 25.4716 76.7159C25.0852 76.4735 24.7813 76.1288 24.5597 75.6818C24.3381 75.2348 24.2273 74.7045 24.2273 74.0909C24.2273 73.4773 24.3381 72.947 24.5597 72.5C24.7813 72.053 25.0852 71.7083 25.4716 71.4659C25.858 71.2235 26.2992 71.1023 26.7955 71.1023C27.2917 71.1023 27.733 71.2235 28.1193 71.4659C28.5057 71.7083 28.8097 72.053 29.0312 72.5C29.2528 72.947 29.3636 73.4773 29.3636 74.0909ZM28.6818 74.0909C28.6818 73.5871 28.5975 73.1619 28.429 72.8153C28.2623 72.4688 28.036 72.2064 27.75 72.0284C27.4659 71.8504 27.1477 71.7614 26.7955 71.7614C26.4432 71.7614 26.1241 71.8504 25.8381 72.0284C25.554 72.2064 25.3277 72.4688 25.1591 72.8153C24.9924 73.1619 24.9091 73.5871 24.9091 74.0909C24.9091 74.5947 24.9924 75.0199 25.1591 75.3665C25.3277 75.7131 25.554 75.9754 25.8381 76.1534C26.1241 76.3314 26.4432 76.4205 26.7955 76.4205C27.1477 76.4205 27.4659 76.3314 27.75 76.1534C28.036 75.9754 28.2623 75.7131 28.429 75.3665C28.5975 75.0199 28.6818 74.5947 28.6818 74.0909ZM35.4574 74.0909C35.4574 74.7045 35.3466 75.2348 35.125 75.6818C34.9034 76.1288 34.5994 76.4735 34.2131 76.7159C33.8267 76.9583 33.3854 77.0795 32.8892 77.0795C32.393 77.0795 31.9517 76.9583 31.5653 76.7159C31.179 76.4735 30.875 76.1288 30.6534 75.6818C30.4318 75.2348 30.321 74.7045 30.321 74.0909C30.321 73.4773 30.4318 72.947 30.6534 72.5C30.875 72.053 31.179 71.7083 31.5653 71.4659C31.9517 71.2235 32.393 71.1023 32.8892 71.1023C33.3854 71.1023 33.8267 71.2235 34.2131 71.4659C34.5994 71.7083 34.9034 72.053 35.125 72.5C35.3466 72.947 35.4574 73.4773 35.4574 74.0909ZM34.7756 74.0909C34.7756 73.5871 34.6913 73.1619 34.5227 72.8153C34.3561 72.4688 34.1297 72.2064 33.8438 72.0284C33.5597 71.8504 33.2415 71.7614 32.8892 71.7614C32.5369 71.7614 32.2178 71.8504 31.9318 72.0284C31.6477 72.2064 31.4214 72.4688 31.2528 72.8153C31.0862 73.1619 31.0028 73.5871 31.0028 74.0909C31.0028 74.5947 31.0862 75.0199 31.2528 75.3665C31.4214 75.7131 31.6477 75.9754 31.9318 76.1534C32.2178 76.3314 32.5369 76.4205 32.8892 76.4205C33.2415 76.4205 33.5597 76.3314 33.8438 76.1534C34.1297 75.9754 34.3561 75.7131 34.5227 75.3665C34.6913 75.0199 34.7756 74.5947 34.7756 74.0909ZM39.8239 72.6364C39.7898 72.3485 39.6515 72.125 39.4091 71.9659C39.1667 71.8068 38.8693 71.7273 38.517 71.7273C38.2595 71.7273 38.0341 71.7689 37.8409 71.8523C37.6496 71.9356 37.5 72.0502 37.392 72.196C37.286 72.3419 37.233 72.5076 37.233 72.6932C37.233 72.8485 37.2699 72.982 37.3438 73.0938C37.4195 73.2036 37.5161 73.2955 37.6335 73.3693C37.7509 73.4413 37.8741 73.5009 38.0028 73.5483C38.1316 73.5937 38.25 73.6307 38.358 73.6591L38.9489 73.8182C39.1004 73.858 39.2689 73.9129 39.4545 73.983C39.642 74.053 39.821 74.1487 39.9915 74.2699C40.1638 74.3892 40.3059 74.5426 40.4176 74.7301C40.5294 74.9176 40.5852 75.1477 40.5852 75.4205C40.5852 75.7348 40.5028 76.0189 40.3381 76.2727C40.1752 76.5265 39.9366 76.7282 39.6222 76.8778C39.3097 77.0275 38.9299 77.1023 38.483 77.1023C38.0663 77.1023 37.7055 77.035 37.4006 76.9006C37.0975 76.7661 36.8589 76.5786 36.6847 76.3381C36.5123 76.0975 36.4148 75.8182 36.392 75.5H37.1193C37.1383 75.7197 37.2121 75.9015 37.3409 76.0455C37.4716 76.1875 37.6364 76.2936 37.8352 76.3636C38.036 76.4318 38.2519 76.4659 38.483 76.4659C38.7519 76.4659 38.9934 76.4223 39.2074 76.3352C39.4214 76.2462 39.5909 76.1231 39.7159 75.9659C39.8409 75.8068 39.9034 75.6212 39.9034 75.4091C39.9034 75.2159 39.8494 75.0587 39.7415 74.9375C39.6335 74.8163 39.4915 74.7178 39.3153 74.642C39.1392 74.5663 38.9489 74.5 38.7443 74.4432L38.0284 74.2386C37.5739 74.108 37.214 73.9214 36.9489 73.679C36.6837 73.4366 36.5511 73.1193 36.5511 72.7273C36.5511 72.4015 36.6392 72.1174 36.8153 71.875C36.9934 71.6307 37.232 71.4413 37.5312 71.3068C37.8324 71.1705 38.1686 71.1023 38.5398 71.1023C38.9148 71.1023 39.2481 71.1695 39.5398 71.304C39.8314 71.4366 40.0625 71.6184 40.233 71.8494C40.4053 72.0805 40.4962 72.3428 40.5057 72.6364H39.8239ZM41.9822 77H41.2436L43.38 71.1818H44.1072L46.2436 77H45.505L43.7663 72.1023H43.7209L41.9822 77ZM42.255 74.7273H45.2322V75.3523H42.255V74.7273ZM51.7635 71.1818V77H51.0817L47.9112 72.4318H47.8544V77H47.1499V71.1818H47.8317L51.0135 75.7614H51.0703V71.1818H51.7635ZM55.4233 77V71.1818H57.3892C57.8456 71.1818 58.2188 71.2642 58.5085 71.429C58.8002 71.5919 59.0161 71.8125 59.1562 72.0909C59.2964 72.3693 59.3665 72.6799 59.3665 73.0227C59.3665 73.3655 59.2964 73.6771 59.1562 73.9574C59.018 74.2377 58.804 74.4612 58.5142 74.6278C58.2244 74.7926 57.8532 74.875 57.4006 74.875H55.9915V74.25H57.3778C57.6903 74.25 57.9413 74.196 58.1307 74.0881C58.3201 73.9801 58.4574 73.8343 58.5426 73.6506C58.6297 73.465 58.6733 73.2557 58.6733 73.0227C58.6733 72.7898 58.6297 72.5814 58.5426 72.3977C58.4574 72.214 58.3191 72.0701 58.1278 71.9659C57.9366 71.8598 57.6828 71.8068 57.3665 71.8068H56.1278V77H55.4233ZM60.5014 77V71.1818H62.4673C62.9219 71.1818 63.295 71.2595 63.5866 71.4148C63.8783 71.5682 64.0942 71.7794 64.2344 72.0483C64.3745 72.3172 64.4446 72.6231 64.4446 72.9659C64.4446 73.3087 64.3745 73.6127 64.2344 73.8778C64.0942 74.143 63.8793 74.3513 63.5895 74.5028C63.2997 74.6525 62.9295 74.7273 62.4787 74.7273H60.8878V74.0909H62.456C62.7666 74.0909 63.0166 74.0455 63.206 73.9545C63.3973 73.8636 63.5355 73.7348 63.6207 73.5682C63.7079 73.3996 63.7514 73.1989 63.7514 72.9659C63.7514 72.733 63.7079 72.5294 63.6207 72.3551C63.5336 72.1809 63.3944 72.0464 63.2031 71.9517C63.0118 71.8551 62.759 71.8068 62.4446 71.8068H61.206V77H60.5014ZM63.2401 74.3864L64.6719 77H63.8537L62.4446 74.3864H63.2401ZM70.5277 74.0909C70.5277 74.7045 70.4169 75.2348 70.1953 75.6818C69.9737 76.1288 69.6697 76.4735 69.2834 76.7159C68.897 76.9583 68.4557 77.0795 67.9595 77.0795C67.4633 77.0795 67.022 76.9583 66.6357 76.7159C66.2493 76.4735 65.9453 76.1288 65.7237 75.6818C65.5021 75.2348 65.3913 74.7045 65.3913 74.0909C65.3913 73.4773 65.5021 72.947 65.7237 72.5C65.9453 72.053 66.2493 71.7083 66.6357 71.4659C67.022 71.2235 67.4633 71.1023 67.9595 71.1023C68.4557 71.1023 68.897 71.2235 69.2834 71.4659C69.6697 71.7083 69.9737 72.053 70.1953 72.5C70.4169 72.947 70.5277 73.4773 70.5277 74.0909ZM69.8459 74.0909C69.8459 73.5871 69.7616 73.1619 69.593 72.8153C69.4264 72.4688 69.2 72.2064 68.9141 72.0284C68.63 71.8504 68.3118 71.7614 67.9595 71.7614C67.6072 71.7614 67.2881 71.8504 67.0021 72.0284C66.718 72.2064 66.4917 72.4688 66.3232 72.8153C66.1565 73.1619 66.0732 73.5871 66.0732 74.0909C66.0732 74.5947 66.1565 75.0199 66.3232 75.3665C66.4917 75.7131 66.718 75.9754 67.0021 76.1534C67.2881 76.3314 67.6072 76.4205 67.9595 76.4205C68.3118 76.4205 68.63 76.3314 68.9141 76.1534C69.2 75.9754 69.4264 75.7131 69.593 75.3665C69.7616 75.0199 69.8459 74.5947 69.8459 74.0909ZM71.7124 77V71.1818H75.201V71.8068H72.4169V73.7727H74.9396V74.3977H72.4169V77H71.7124ZM76.4077 77V71.1818H79.919V71.8068H77.1122V73.7727H79.7372V74.3977H77.1122V76.375H79.9645V77H76.4077ZM84.3707 72.6364C84.3366 72.3485 84.1984 72.125 83.956 71.9659C83.7135 71.8068 83.4162 71.7273 83.0639 71.7273C82.8063 71.7273 82.581 71.7689 82.3878 71.8523C82.1965 71.9356 82.0469 72.0502 81.9389 72.196C81.8329 72.3419 81.7798 72.5076 81.7798 72.6932C81.7798 72.8485 81.8168 72.982 81.8906 73.0938C81.9664 73.2036 82.063 73.2955 82.1804 73.3693C82.2978 73.4413 82.4209 73.5009 82.5497 73.5483C82.6785 73.5937 82.7969 73.6307 82.9048 73.6591L83.4957 73.8182C83.6473 73.858 83.8158 73.9129 84.0014 73.983C84.1889 74.053 84.3679 74.1487 84.5384 74.2699C84.7107 74.3892 84.8527 74.5426 84.9645 74.7301C85.0762 74.9176 85.1321 75.1477 85.1321 75.4205C85.1321 75.7348 85.0497 76.0189 84.8849 76.2727C84.7221 76.5265 84.4834 76.7282 84.169 76.8778C83.8565 77.0275 83.4768 77.1023 83.0298 77.1023C82.6132 77.1023 82.2524 77.035 81.9474 76.9006C81.6444 76.7661 81.4058 76.5786 81.2315 76.3381C81.0592 76.0975 80.9616 75.8182 80.9389 75.5H81.6662C81.6851 75.7197 81.759 75.9015 81.8878 76.0455C82.0185 76.1875 82.1832 76.2936 82.3821 76.3636C82.5829 76.4318 82.7988 76.4659 83.0298 76.4659C83.2988 76.4659 83.5402 76.4223 83.7543 76.3352C83.9683 76.2462 84.1378 76.1231 84.2628 75.9659C84.3878 75.8068 84.4503 75.6212 84.4503 75.4091C84.4503 75.2159 84.3963 75.0587 84.2884 74.9375C84.1804 74.8163 84.0384 74.7178 83.8622 74.642C83.6861 74.5663 83.4957 74.5 83.2912 74.4432L82.5753 74.2386C82.1207 74.108 81.7609 73.9214 81.4957 73.679C81.2306 73.4366 81.098 73.1193 81.098 72.7273C81.098 72.4015 81.1861 72.1174 81.3622 71.875C81.5402 71.6307 81.7789 71.4413 82.0781 71.3068C82.3793 71.1705 82.7154 71.1023 83.0866 71.1023C83.4616 71.1023 83.795 71.1695 84.0866 71.304C84.3783 71.4366 84.6094 71.6184 84.7798 71.8494C84.9522 72.0805 85.0431 72.3428 85.0526 72.6364H84.3707ZM89.4723 72.6364C89.4382 72.3485 89.3 72.125 89.0575 71.9659C88.8151 71.8068 88.5178 71.7273 88.1655 71.7273C87.9079 71.7273 87.6825 71.7689 87.4893 71.8523C87.2981 71.9356 87.1484 72.0502 87.0405 72.196C86.9344 72.3419 86.8814 72.5076 86.8814 72.6932C86.8814 72.8485 86.9183 72.982 86.9922 73.0938C87.0679 73.2036 87.1645 73.2955 87.282 73.3693C87.3994 73.4413 87.5225 73.5009 87.6513 73.5483C87.7801 73.5937 87.8984 73.6307 88.0064 73.6591L88.5973 73.8182C88.7488 73.858 88.9174 73.9129 89.103 73.983C89.2905 74.053 89.4695 74.1487 89.6399 74.2699C89.8123 74.3892 89.9543 74.5426 90.0661 74.7301C90.1778 74.9176 90.2337 75.1477 90.2337 75.4205C90.2337 75.7348 90.1513 76.0189 89.9865 76.2727C89.8236 76.5265 89.585 76.7282 89.2706 76.8778C88.9581 77.0275 88.5784 77.1023 88.1314 77.1023C87.7147 77.1023 87.3539 77.035 87.049 76.9006C86.746 76.7661 86.5073 76.5786 86.3331 76.3381C86.1607 76.0975 86.0632 75.8182 86.0405 75.5H86.7678C86.7867 75.7197 86.8606 75.9015 86.9893 76.0455C87.12 76.1875 87.2848 76.2936 87.4837 76.3636C87.6844 76.4318 87.9003 76.4659 88.1314 76.4659C88.4003 76.4659 88.6418 76.4223 88.8558 76.3352C89.0698 76.2462 89.2393 76.1231 89.3643 75.9659C89.4893 75.8068 89.5518 75.6212 89.5518 75.4091C89.5518 75.2159 89.4979 75.0587 89.3899 74.9375C89.282 74.8163 89.1399 74.7178 88.9638 74.642C88.7876 74.5663 88.5973 74.5 88.3928 74.4432L87.6768 74.2386C87.2223 74.108 86.8625 73.9214 86.5973 73.679C86.3321 73.4366 86.1996 73.1193 86.1996 72.7273C86.1996 72.4015 86.2876 72.1174 86.4638 71.875C86.6418 71.6307 86.8804 71.4413 87.1797 71.3068C87.4808 71.1705 87.817 71.1023 88.1882 71.1023C88.5632 71.1023 88.8965 71.1695 89.1882 71.304C89.4799 71.4366 89.7109 71.6184 89.8814 71.8494C90.0537 72.0805 90.1446 72.3428 90.1541 72.6364H89.4723ZM92.0966 71.1818V77H91.392V71.1818H92.0966ZM98.4183 74.0909C98.4183 74.7045 98.3075 75.2348 98.0859 75.6818C97.8643 76.1288 97.5604 76.4735 97.174 76.7159C96.7876 76.9583 96.3464 77.0795 95.8501 77.0795C95.3539 77.0795 94.9126 76.9583 94.5263 76.7159C94.1399 76.4735 93.8359 76.1288 93.6143 75.6818C93.3928 75.2348 93.282 74.7045 93.282 74.0909C93.282 73.4773 93.3928 72.947 93.6143 72.5C93.8359 72.053 94.1399 71.7083 94.5263 71.4659C94.9126 71.2235 95.3539 71.1023 95.8501 71.1023C96.3464 71.1023 96.7876 71.2235 97.174 71.4659C97.5604 71.7083 97.8643 72.053 98.0859 72.5C98.3075 72.947 98.4183 73.4773 98.4183 74.0909ZM97.7365 74.0909C97.7365 73.5871 97.6522 73.1619 97.4837 72.8153C97.317 72.4688 97.0907 72.2064 96.8047 72.0284C96.5206 71.8504 96.2024 71.7614 95.8501 71.7614C95.4979 71.7614 95.1787 71.8504 94.8928 72.0284C94.6087 72.2064 94.3823 72.4688 94.2138 72.8153C94.0471 73.1619 93.9638 73.5871 93.9638 74.0909C93.9638 74.5947 94.0471 75.0199 94.2138 75.3665C94.3823 75.7131 94.6087 75.9754 94.8928 76.1534C95.1787 76.3314 95.4979 76.4205 95.8501 76.4205C96.2024 76.4205 96.5206 76.3314 96.8047 76.1534C97.0907 75.9754 97.317 75.7131 97.4837 75.3665C97.6522 75.0199 97.7365 74.5947 97.7365 74.0909ZM104.217 71.1818V77H103.535L100.364 72.4318H100.308V77H99.603V71.1818H100.285L103.467 75.7614H103.523V71.1818H104.217ZM105.865 77H105.126L107.263 71.1818H107.99L110.126 77H109.388L107.649 72.1023H107.604L105.865 77ZM106.138 74.7273H109.115V75.3523H106.138V74.7273ZM111.033 77V71.1818H111.737V76.375H114.442V77H111.033ZM117.783 77V71.1818H119.817C120.222 71.1818 120.556 71.2519 120.82 71.392C121.083 71.5303 121.279 71.7169 121.408 71.9517C121.536 72.1847 121.601 72.4432 121.601 72.7273C121.601 72.9773 121.556 73.1837 121.467 73.3466C121.38 73.5095 121.265 73.6383 121.121 73.733C120.979 73.8277 120.824 73.8977 120.658 73.9432V74C120.836 74.0114 121.015 74.0739 121.195 74.1875C121.375 74.3011 121.525 74.464 121.646 74.6761C121.768 74.8883 121.828 75.1477 121.828 75.4545C121.828 75.7462 121.762 76.0085 121.629 76.2415C121.497 76.4744 121.287 76.6591 121.001 76.7955C120.715 76.9318 120.343 77 119.885 77H117.783ZM118.487 76.375H119.885C120.345 76.375 120.672 76.286 120.865 76.108C121.06 75.928 121.158 75.7102 121.158 75.4545C121.158 75.2576 121.107 75.0758 121.007 74.9091C120.907 74.7405 120.764 74.6061 120.578 74.5057C120.393 74.4034 120.173 74.3523 119.919 74.3523H118.487V76.375ZM118.487 73.7386H119.794C120.006 73.7386 120.197 73.697 120.368 73.6136C120.54 73.5303 120.677 73.4129 120.777 73.2614C120.879 73.1098 120.93 72.9318 120.93 72.7273C120.93 72.4716 120.841 72.2547 120.663 72.0767C120.485 71.8968 120.203 71.8068 119.817 71.8068H118.487V73.7386ZM123.224 77H122.486L124.622 71.1818H125.349L127.486 77H126.747L125.009 72.1023H124.963L123.224 77ZM123.497 74.7273H126.474V75.3523H123.497V74.7273ZM131.574 72.6364C131.54 72.3485 131.402 72.125 131.159 71.9659C130.917 71.8068 130.619 71.7273 130.267 71.7273C130.009 71.7273 129.784 71.7689 129.591 71.8523C129.4 71.9356 129.25 72.0502 129.142 72.196C129.036 72.3419 128.983 72.5076 128.983 72.6932C128.983 72.8485 129.02 72.982 129.094 73.0938C129.17 73.2036 129.266 73.2955 129.384 73.3693C129.501 73.4413 129.624 73.5009 129.753 73.5483C129.882 73.5937 130 73.6307 130.108 73.6591L130.699 73.8182C130.85 73.858 131.019 73.9129 131.205 73.983C131.392 74.053 131.571 74.1487 131.741 74.2699C131.914 74.3892 132.056 74.5426 132.168 74.7301C132.279 74.9176 132.335 75.1477 132.335 75.4205C132.335 75.7348 132.253 76.0189 132.088 76.2727C131.925 76.5265 131.687 76.7282 131.372 76.8778C131.06 77.0275 130.68 77.1023 130.233 77.1023C129.816 77.1023 129.455 77.035 129.151 76.9006C128.848 76.7661 128.609 76.5786 128.435 76.3381C128.262 76.0975 128.165 75.8182 128.142 75.5H128.869C128.888 75.7197 128.962 75.9015 129.091 76.0455C129.222 76.1875 129.386 76.2936 129.585 76.3636C129.786 76.4318 130.002 76.4659 130.233 76.4659C130.502 76.4659 130.743 76.4223 130.957 76.3352C131.171 76.2462 131.341 76.1231 131.466 75.9659C131.591 75.8068 131.653 75.6212 131.653 75.4091C131.653 75.2159 131.599 75.0587 131.491 74.9375C131.384 74.8163 131.241 74.7178 131.065 74.642C130.889 74.5663 130.699 74.5 130.494 74.4432L129.778 74.2386C129.324 74.108 128.964 73.9214 128.699 73.679C128.434 73.4366 128.301 73.1193 128.301 72.7273C128.301 72.4015 128.389 72.1174 128.565 71.875C128.743 71.6307 128.982 71.4413 129.281 71.3068C129.582 71.1705 129.919 71.1023 130.29 71.1023C130.665 71.1023 130.998 71.1695 131.29 71.304C131.581 71.4366 131.813 71.6184 131.983 71.8494C132.155 72.0805 132.246 72.3428 132.256 72.6364H131.574ZM133.494 77V71.1818H137.005V71.8068H134.198V73.7727H136.823V74.3977H134.198V76.375H137.05V77H133.494ZM138.275 77V71.1818H140.309C140.714 71.1818 141.049 71.2519 141.312 71.392C141.575 71.5303 141.771 71.7169 141.9 71.9517C142.029 72.1847 142.093 72.4432 142.093 72.7273C142.093 72.9773 142.049 73.1837 141.96 73.3466C141.872 73.5095 141.757 73.6383 141.613 73.733C141.471 73.8277 141.317 73.8977 141.15 73.9432V74C141.328 74.0114 141.507 74.0739 141.687 74.1875C141.867 74.3011 142.017 74.464 142.138 74.6761C142.26 74.8883 142.32 75.1477 142.32 75.4545C142.32 75.7462 142.254 76.0085 142.121 76.2415C141.989 76.4744 141.78 76.6591 141.494 76.7955C141.208 76.9318 140.835 77 140.377 77H138.275ZM138.979 76.375H140.377C140.837 76.375 141.164 76.286 141.357 76.108C141.552 75.928 141.65 75.7102 141.65 75.4545C141.65 75.2576 141.6 75.0758 141.499 74.9091C141.399 74.7405 141.256 74.6061 141.07 74.5057C140.885 74.4034 140.665 74.3523 140.411 74.3523H138.979V76.375ZM138.979 73.7386H140.286C140.498 73.7386 140.69 73.697 140.86 73.6136C141.032 73.5303 141.169 73.4129 141.269 73.2614C141.371 73.1098 141.423 72.9318 141.423 72.7273C141.423 72.4716 141.334 72.2547 141.156 72.0767C140.978 71.8968 140.695 71.8068 140.309 71.8068H138.979V73.7386ZM143.717 77H142.978L145.114 71.1818H145.842L147.978 77H147.239L145.501 72.1023H145.455L143.717 77ZM143.989 74.7273H146.967V75.3523H143.989V74.7273ZM148.884 77V71.1818H149.589V76.375H152.293V77H148.884ZM153.384 77V71.1818H154.089V76.375H156.793V77H153.384ZM164.816 73H164.112C164.07 72.7973 163.997 72.6193 163.893 72.4659C163.79 72.3125 163.665 72.1837 163.518 72.0795C163.372 71.9735 163.21 71.8939 163.032 71.8409C162.854 71.7879 162.668 71.7614 162.475 71.7614C162.123 71.7614 161.804 71.8504 161.518 72.0284C161.234 72.2064 161.007 72.4688 160.839 72.8153C160.672 73.1619 160.589 73.5871 160.589 74.0909C160.589 74.5947 160.672 75.0199 160.839 75.3665C161.007 75.7131 161.234 75.9754 161.518 76.1534C161.804 76.3314 162.123 76.4205 162.475 76.4205C162.668 76.4205 162.854 76.3939 163.032 76.3409C163.21 76.2879 163.372 76.2093 163.518 76.1051C163.665 75.9991 163.79 75.8693 163.893 75.7159C163.997 75.5606 164.07 75.3826 164.112 75.1818H164.816C164.763 75.4792 164.666 75.7453 164.526 75.9801C164.386 76.215 164.212 76.4148 164.004 76.5795C163.795 76.7424 163.561 76.8665 163.302 76.9517C163.044 77.0369 162.769 77.0795 162.475 77.0795C161.979 77.0795 161.538 76.9583 161.151 76.7159C160.765 76.4735 160.461 76.1288 160.239 75.6818C160.018 75.2348 159.907 74.7045 159.907 74.0909C159.907 73.4773 160.018 72.947 160.239 72.5C160.461 72.053 160.765 71.7083 161.151 71.4659C161.538 71.2235 161.979 71.1023 162.475 71.1023C162.769 71.1023 163.044 71.1449 163.302 71.2301C163.561 71.3153 163.795 71.4403 164.004 71.6051C164.212 71.768 164.386 71.9669 164.526 72.2017C164.666 72.4347 164.763 72.7008 164.816 73ZM165.955 77V71.1818H166.659V76.375H169.364V77H165.955ZM174.273 71.1818H174.977V75.0341C174.977 75.4318 174.884 75.7869 174.696 76.0994C174.51 76.41 174.248 76.6553 173.909 76.8352C173.57 77.0133 173.172 77.1023 172.716 77.1023C172.259 77.1023 171.862 77.0133 171.523 76.8352C171.184 76.6553 170.92 76.41 170.733 76.0994C170.547 75.7869 170.455 75.4318 170.455 75.0341V71.1818H171.159V74.9773C171.159 75.2614 171.222 75.5142 171.347 75.7358C171.472 75.9555 171.65 76.1288 171.881 76.2557C172.114 76.3807 172.392 76.4432 172.716 76.4432C173.04 76.4432 173.318 76.3807 173.551 76.2557C173.784 76.1288 173.962 75.9555 174.085 75.7358C174.21 75.5142 174.273 75.2614 174.273 74.9773V71.1818ZM176.384 77V71.1818H178.418C178.824 71.1818 179.158 71.2519 179.421 71.392C179.684 71.5303 179.88 71.7169 180.009 71.9517C180.138 72.1847 180.202 72.4432 180.202 72.7273C180.202 72.9773 180.158 73.1837 180.069 73.3466C179.982 73.5095 179.866 73.6383 179.722 73.733C179.58 73.8277 179.426 73.8977 179.259 73.9432V74C179.437 74.0114 179.616 74.0739 179.796 74.1875C179.976 74.3011 180.127 74.464 180.248 74.6761C180.369 74.8883 180.43 75.1477 180.43 75.4545C180.43 75.7462 180.363 76.0085 180.231 76.2415C180.098 76.4744 179.889 76.6591 179.603 76.7955C179.317 76.9318 178.945 77 178.487 77H176.384ZM177.089 76.375H178.487C178.947 76.375 179.273 76.286 179.467 76.108C179.662 75.928 179.759 75.7102 179.759 75.4545C179.759 75.2576 179.709 75.0758 179.609 74.9091C179.508 74.7405 179.365 74.6061 179.18 74.5057C178.994 74.4034 178.774 74.3523 178.521 74.3523H177.089V76.375ZM177.089 73.7386H178.396C178.608 73.7386 178.799 73.697 178.969 73.6136C179.142 73.5303 179.278 73.4129 179.379 73.2614C179.481 73.1098 179.532 72.9318 179.532 72.7273C179.532 72.4716 179.443 72.2547 179.265 72.0767C179.087 71.8968 178.805 71.8068 178.418 71.8068H177.089V73.7386Z" fill="white"/>
<rect x="7.5" y="118.5" width="185" height="16" fill="#1A1748" stroke="#1A1748"/>
<path d="M20.5 130H18.7045V124.182H20.5795C21.1439 124.182 21.6269 124.298 22.0284 124.531C22.4299 124.762 22.7377 125.095 22.9517 125.528C23.1657 125.96 23.2727 126.477 23.2727 127.08C23.2727 127.686 23.1648 128.207 22.9489 128.645C22.733 129.08 22.4186 129.416 22.0057 129.651C21.5928 129.884 21.0909 130 20.5 130ZM19.4091 129.375H20.4545C20.9356 129.375 21.3343 129.282 21.6506 129.097C21.9669 128.911 22.2027 128.647 22.358 128.304C22.5133 127.961 22.5909 127.553 22.5909 127.08C22.5909 126.61 22.5142 126.205 22.3608 125.866C22.2074 125.526 21.9782 125.264 21.6733 125.082C21.3684 124.899 20.9886 124.807 20.5341 124.807H19.4091V129.375ZM29.3636 127.091C29.3636 127.705 29.2528 128.235 29.0312 128.682C28.8097 129.129 28.5057 129.473 28.1193 129.716C27.733 129.958 27.2917 130.08 26.7955 130.08C26.2992 130.08 25.858 129.958 25.4716 129.716C25.0852 129.473 24.7813 129.129 24.5597 128.682C24.3381 128.235 24.2273 127.705 24.2273 127.091C24.2273 126.477 24.3381 125.947 24.5597 125.5C24.7813 125.053 25.0852 124.708 25.4716 124.466C25.858 124.223 26.2992 124.102 26.7955 124.102C27.2917 124.102 27.733 124.223 28.1193 124.466C28.5057 124.708 28.8097 125.053 29.0312 125.5C29.2528 125.947 29.3636 126.477 29.3636 127.091ZM28.6818 127.091C28.6818 126.587 28.5975 126.162 28.429 125.815C28.2623 125.469 28.036 125.206 27.75 125.028C27.4659 124.85 27.1477 124.761 26.7955 124.761C26.4432 124.761 26.1241 124.85 25.8381 125.028C25.554 125.206 25.3277 125.469 25.1591 125.815C24.9924 126.162 24.9091 126.587 24.9091 127.091C24.9091 127.595 24.9924 128.02 25.1591 128.366C25.3277 128.713 25.554 128.975 25.8381 129.153C26.1241 129.331 26.4432 129.42 26.7955 129.42C27.1477 129.42 27.4659 129.331 27.75 129.153C28.036 128.975 28.2623 128.713 28.429 128.366C28.5975 128.02 28.6818 127.595 28.6818 127.091ZM35.4574 127.091C35.4574 127.705 35.3466 128.235 35.125 128.682C34.9034 129.129 34.5994 129.473 34.2131 129.716C33.8267 129.958 33.3854 130.08 32.8892 130.08C32.393 130.08 31.9517 129.958 31.5653 129.716C31.179 129.473 30.875 129.129 30.6534 128.682C30.4318 128.235 30.321 127.705 30.321 127.091C30.321 126.477 30.4318 125.947 30.6534 125.5C30.875 125.053 31.179 124.708 31.5653 124.466C31.9517 124.223 32.393 124.102 32.8892 124.102C33.3854 124.102 33.8267 124.223 34.2131 124.466C34.5994 124.708 34.9034 125.053 35.125 125.5C35.3466 125.947 35.4574 126.477 35.4574 127.091ZM34.7756 127.091C34.7756 126.587 34.6913 126.162 34.5227 125.815C34.3561 125.469 34.1297 125.206 33.8438 125.028C33.5597 124.85 33.2415 124.761 32.8892 124.761C32.5369 124.761 32.2178 124.85 31.9318 125.028C31.6477 125.206 31.4214 125.469 31.2528 125.815C31.0862 126.162 31.0028 126.587 31.0028 127.091C31.0028 127.595 31.0862 128.02 31.2528 128.366C31.4214 128.713 31.6477 128.975 31.9318 129.153C32.2178 129.331 32.5369 129.42 32.8892 129.42C33.2415 129.42 33.5597 129.331 33.8438 129.153C34.1297 128.975 34.3561 128.713 34.5227 128.366C34.6913 128.02 34.7756 127.595 34.7756 127.091ZM39.8239 125.636C39.7898 125.348 39.6515 125.125 39.4091 124.966C39.1667 124.807 38.8693 124.727 38.517 124.727C38.2595 124.727 38.0341 124.769 37.8409 124.852C37.6496 124.936 37.5 125.05 37.392 125.196C37.286 125.342 37.233 125.508 37.233 125.693C37.233 125.848 37.2699 125.982 37.3438 126.094C37.4195 126.204 37.5161 126.295 37.6335 126.369C37.7509 126.441 37.8741 126.501 38.0028 126.548C38.1316 126.594 38.25 126.631 38.358 126.659L38.9489 126.818C39.1004 126.858 39.2689 126.913 39.4545 126.983C39.642 127.053 39.821 127.149 39.9915 127.27C40.1638 127.389 40.3059 127.543 40.4176 127.73C40.5294 127.918 40.5852 128.148 40.5852 128.42C40.5852 128.735 40.5028 129.019 40.3381 129.273C40.1752 129.527 39.9366 129.728 39.6222 129.878C39.3097 130.027 38.9299 130.102 38.483 130.102C38.0663 130.102 37.7055 130.035 37.4006 129.901C37.0975 129.766 36.8589 129.579 36.6847 129.338C36.5123 129.098 36.4148 128.818 36.392 128.5H37.1193C37.1383 128.72 37.2121 128.902 37.3409 129.045C37.4716 129.187 37.6364 129.294 37.8352 129.364C38.036 129.432 38.2519 129.466 38.483 129.466C38.7519 129.466 38.9934 129.422 39.2074 129.335C39.4214 129.246 39.5909 129.123 39.7159 128.966C39.8409 128.807 39.9034 128.621 39.9034 128.409C39.9034 128.216 39.8494 128.059 39.7415 127.938C39.6335 127.816 39.4915 127.718 39.3153 127.642C39.1392 127.566 38.9489 127.5 38.7443 127.443L38.0284 127.239C37.5739 127.108 37.214 126.921 36.9489 126.679C36.6837 126.437 36.5511 126.119 36.5511 125.727C36.5511 125.402 36.6392 125.117 36.8153 124.875C36.9934 124.631 37.232 124.441 37.5312 124.307C37.8324 124.17 38.1686 124.102 38.5398 124.102C38.9148 124.102 39.2481 124.17 39.5398 124.304C39.8314 124.437 40.0625 124.618 40.233 124.849C40.4053 125.08 40.4962 125.343 40.5057 125.636H39.8239ZM41.9822 130H41.2436L43.38 124.182H44.1072L46.2436 130H45.505L43.7663 125.102H43.7209L41.9822 130ZM42.255 127.727H45.2322V128.352H42.255V127.727ZM51.7635 124.182V130H51.0817L47.9112 125.432H47.8544V130H47.1499V124.182H47.8317L51.0135 128.761H51.0703V124.182H51.7635ZM55.4233 130V124.182H57.3892C57.8456 124.182 58.2188 124.264 58.5085 124.429C58.8002 124.592 59.0161 124.812 59.1562 125.091C59.2964 125.369 59.3665 125.68 59.3665 126.023C59.3665 126.366 59.2964 126.677 59.1562 126.957C59.018 127.238 58.804 127.461 58.5142 127.628C58.2244 127.793 57.8532 127.875 57.4006 127.875H55.9915V127.25H57.3778C57.6903 127.25 57.9413 127.196 58.1307 127.088C58.3201 126.98 58.4574 126.834 58.5426 126.651C58.6297 126.465 58.6733 126.256 58.6733 126.023C58.6733 125.79 58.6297 125.581 58.5426 125.398C58.4574 125.214 58.3191 125.07 58.1278 124.966C57.9366 124.86 57.6828 124.807 57.3665 124.807H56.1278V130H55.4233ZM60.5014 130V124.182H62.4673C62.9219 124.182 63.295 124.259 63.5866 124.415C63.8783 124.568 64.0942 124.779 64.2344 125.048C64.3745 125.317 64.4446 125.623 64.4446 125.966C64.4446 126.309 64.3745 126.613 64.2344 126.878C64.0942 127.143 63.8793 127.351 63.5895 127.503C63.2997 127.652 62.9295 127.727 62.4787 127.727H60.8878V127.091H62.456C62.7666 127.091 63.0166 127.045 63.206 126.955C63.3973 126.864 63.5355 126.735 63.6207 126.568C63.7079 126.4 63.7514 126.199 63.7514 125.966C63.7514 125.733 63.7079 125.529 63.6207 125.355C63.5336 125.181 63.3944 125.046 63.2031 124.952C63.0118 124.855 62.759 124.807 62.4446 124.807H61.206V130H60.5014ZM63.2401 127.386L64.6719 130H63.8537L62.4446 127.386H63.2401ZM70.5277 127.091C70.5277 127.705 70.4169 128.235 70.1953 128.682C69.9737 129.129 69.6697 129.473 69.2834 129.716C68.897 129.958 68.4557 130.08 67.9595 130.08C67.4633 130.08 67.022 129.958 66.6357 129.716C66.2493 129.473 65.9453 129.129 65.7237 128.682C65.5021 128.235 65.3913 127.705 65.3913 127.091C65.3913 126.477 65.5021 125.947 65.7237 125.5C65.9453 125.053 66.2493 124.708 66.6357 124.466C67.022 124.223 67.4633 124.102 67.9595 124.102C68.4557 124.102 68.897 124.223 69.2834 124.466C69.6697 124.708 69.9737 125.053 70.1953 125.5C70.4169 125.947 70.5277 126.477 70.5277 127.091ZM69.8459 127.091C69.8459 126.587 69.7616 126.162 69.593 125.815C69.4264 125.469 69.2 125.206 68.9141 125.028C68.63 124.85 68.3118 124.761 67.9595 124.761C67.6072 124.761 67.2881 124.85 67.0021 125.028C66.718 125.206 66.4917 125.469 66.3232 125.815C66.1565 126.162 66.0732 126.587 66.0732 127.091C66.0732 127.595 66.1565 128.02 66.3232 128.366C66.4917 128.713 66.718 128.975 67.0021 129.153C67.2881 129.331 67.6072 129.42 67.9595 129.42C68.3118 129.42 68.63 129.331 68.9141 129.153C69.2 128.975 69.4264 128.713 69.593 128.366C69.7616 128.02 69.8459 127.595 69.8459 127.091ZM71.7124 130V124.182H75.201V124.807H72.4169V126.773H74.9396V127.398H72.4169V130H71.7124ZM76.4077 130V124.182H79.919V124.807H77.1122V126.773H79.7372V127.398H77.1122V129.375H79.9645V130H76.4077ZM84.3707 125.636C84.3366 125.348 84.1984 125.125 83.956 124.966C83.7135 124.807 83.4162 124.727 83.0639 124.727C82.8063 124.727 82.581 124.769 82.3878 124.852C82.1965 124.936 82.0469 125.05 81.9389 125.196C81.8329 125.342 81.7798 125.508 81.7798 125.693C81.7798 125.848 81.8168 125.982 81.8906 126.094C81.9664 126.204 82.063 126.295 82.1804 126.369C82.2978 126.441 82.4209 126.501 82.5497 126.548C82.6785 126.594 82.7969 126.631 82.9048 126.659L83.4957 126.818C83.6473 126.858 83.8158 126.913 84.0014 126.983C84.1889 127.053 84.3679 127.149 84.5384 127.27C84.7107 127.389 84.8527 127.543 84.9645 127.73C85.0762 127.918 85.1321 128.148 85.1321 128.42C85.1321 128.735 85.0497 129.019 84.8849 129.273C84.7221 129.527 84.4834 129.728 84.169 129.878C83.8565 130.027 83.4768 130.102 83.0298 130.102C82.6132 130.102 82.2524 130.035 81.9474 129.901C81.6444 129.766 81.4058 129.579 81.2315 129.338C81.0592 129.098 80.9616 128.818 80.9389 128.5H81.6662C81.6851 128.72 81.759 128.902 81.8878 129.045C82.0185 129.187 82.1832 129.294 82.3821 129.364C82.5829 129.432 82.7988 129.466 83.0298 129.466C83.2988 129.466 83.5402 129.422 83.7543 129.335C83.9683 129.246 84.1378 129.123 84.2628 128.966C84.3878 128.807 84.4503 128.621 84.4503 128.409C84.4503 128.216 84.3963 128.059 84.2884 127.938C84.1804 127.816 84.0384 127.718 83.8622 127.642C83.6861 127.566 83.4957 127.5 83.2912 127.443L82.5753 127.239C82.1207 127.108 81.7609 126.921 81.4957 126.679C81.2306 126.437 81.098 126.119 81.098 125.727C81.098 125.402 81.1861 125.117 81.3622 124.875C81.5402 124.631 81.7789 124.441 82.0781 124.307C82.3793 124.17 82.7154 124.102 83.0866 124.102C83.4616 124.102 83.795 124.17 84.0866 124.304C84.3783 124.437 84.6094 124.618 84.7798 124.849C84.9522 125.08 85.0431 125.343 85.0526 125.636H84.3707ZM89.4723 125.636C89.4382 125.348 89.3 125.125 89.0575 124.966C88.8151 124.807 88.5178 124.727 88.1655 124.727C87.9079 124.727 87.6825 124.769 87.4893 124.852C87.2981 124.936 87.1484 125.05 87.0405 125.196C86.9344 125.342 86.8814 125.508 86.8814 125.693C86.8814 125.848 86.9183 125.982 86.9922 126.094C87.0679 126.204 87.1645 126.295 87.282 126.369C87.3994 126.441 87.5225 126.501 87.6513 126.548C87.7801 126.594 87.8984 126.631 88.0064 126.659L88.5973 126.818C88.7488 126.858 88.9174 126.913 89.103 126.983C89.2905 127.053 89.4695 127.149 89.6399 127.27C89.8123 127.389 89.9543 127.543 90.0661 127.73C90.1778 127.918 90.2337 128.148 90.2337 128.42C90.2337 128.735 90.1513 129.019 89.9865 129.273C89.8236 129.527 89.585 129.728 89.2706 129.878C88.9581 130.027 88.5784 130.102 88.1314 130.102C87.7147 130.102 87.3539 130.035 87.049 129.901C86.746 129.766 86.5073 129.579 86.3331 129.338C86.1607 129.098 86.0632 128.818 86.0405 128.5H86.7678C86.7867 128.72 86.8606 128.902 86.9893 129.045C87.12 129.187 87.2848 129.294 87.4837 129.364C87.6844 129.432 87.9003 129.466 88.1314 129.466C88.4003 129.466 88.6418 129.422 88.8558 129.335C89.0698 129.246 89.2393 129.123 89.3643 128.966C89.4893 128.807 89.5518 128.621 89.5518 128.409C89.5518 128.216 89.4979 128.059 89.3899 127.938C89.282 127.816 89.1399 127.718 88.9638 127.642C88.7876 127.566 88.5973 127.5 88.3928 127.443L87.6768 127.239C87.2223 127.108 86.8625 126.921 86.5973 126.679C86.3321 126.437 86.1996 126.119 86.1996 125.727C86.1996 125.402 86.2876 125.117 86.4638 124.875C86.6418 124.631 86.8804 124.441 87.1797 124.307C87.4808 124.17 87.817 124.102 88.1882 124.102C88.5632 124.102 88.8965 124.17 89.1882 124.304C89.4799 124.437 89.7109 124.618 89.8814 124.849C90.0537 125.08 90.1446 125.343 90.1541 125.636H89.4723ZM92.0966 124.182V130H91.392V124.182H92.0966ZM98.4183 127.091C98.4183 127.705 98.3075 128.235 98.0859 128.682C97.8643 129.129 97.5604 129.473 97.174 129.716C96.7876 129.958 96.3464 130.08 95.8501 130.08C95.3539 130.08 94.9126 129.958 94.5263 129.716C94.1399 129.473 93.8359 129.129 93.6143 128.682C93.3928 128.235 93.282 127.705 93.282 127.091C93.282 126.477 93.3928 125.947 93.6143 125.5C93.8359 125.053 94.1399 124.708 94.5263 124.466C94.9126 124.223 95.3539 124.102 95.8501 124.102C96.3464 124.102 96.7876 124.223 97.174 124.466C97.5604 124.708 97.8643 125.053 98.0859 125.5C98.3075 125.947 98.4183 126.477 98.4183 127.091ZM97.7365 127.091C97.7365 126.587 97.6522 126.162 97.4837 125.815C97.317 125.469 97.0907 125.206 96.8047 125.028C96.5206 124.85 96.2024 124.761 95.8501 124.761C95.4979 124.761 95.1787 124.85 94.8928 125.028C94.6087 125.206 94.3823 125.469 94.2138 125.815C94.0471 126.162 93.9638 126.587 93.9638 127.091C93.9638 127.595 94.0471 128.02 94.2138 128.366C94.3823 128.713 94.6087 128.975 94.8928 129.153C95.1787 129.331 95.4979 129.42 95.8501 129.42C96.2024 129.42 96.5206 129.331 96.8047 129.153C97.0907 128.975 97.317 128.713 97.4837 128.366C97.6522 128.02 97.7365 127.595 97.7365 127.091ZM104.217 124.182V130H103.535L100.364 125.432H100.308V130H99.603V124.182H100.285L103.467 128.761H103.523V124.182H104.217ZM105.865 130H105.126L107.263 124.182H107.99L110.126 130H109.388L107.649 125.102H107.604L105.865 130ZM106.138 127.727H109.115V128.352H106.138V127.727ZM111.033 130V124.182H111.737V129.375H114.442V130H111.033ZM117.783 130V124.182H119.817C120.222 124.182 120.556 124.252 120.82 124.392C121.083 124.53 121.279 124.717 121.408 124.952C121.536 125.185 121.601 125.443 121.601 125.727C121.601 125.977 121.556 126.184 121.467 126.347C121.38 126.509 121.265 126.638 121.121 126.733C120.979 126.828 120.824 126.898 120.658 126.943V127C120.836 127.011 121.015 127.074 121.195 127.188C121.375 127.301 121.525 127.464 121.646 127.676C121.768 127.888 121.828 128.148 121.828 128.455C121.828 128.746 121.762 129.009 121.629 129.241C121.497 129.474 121.287 129.659 121.001 129.795C120.715 129.932 120.343 130 119.885 130H117.783ZM118.487 129.375H119.885C120.345 129.375 120.672 129.286 120.865 129.108C121.06 128.928 121.158 128.71 121.158 128.455C121.158 128.258 121.107 128.076 121.007 127.909C120.907 127.741 120.764 127.606 120.578 127.506C120.393 127.403 120.173 127.352 119.919 127.352H118.487V129.375ZM118.487 126.739H119.794C120.006 126.739 120.197 126.697 120.368 126.614C120.54 126.53 120.677 126.413 120.777 126.261C120.879 126.11 120.93 125.932 120.93 125.727C120.93 125.472 120.841 125.255 120.663 125.077C120.485 124.897 120.203 124.807 119.817 124.807H118.487V126.739ZM123.224 130H122.486L124.622 124.182H125.349L127.486 130H126.747L125.009 125.102H124.963L123.224 130ZM123.497 127.727H126.474V128.352H123.497V127.727ZM131.574 125.636C131.54 125.348 131.402 125.125 131.159 124.966C130.917 124.807 130.619 124.727 130.267 124.727C130.009 124.727 129.784 124.769 129.591 124.852C129.4 124.936 129.25 125.05 129.142 125.196C129.036 125.342 128.983 125.508 128.983 125.693C128.983 125.848 129.02 125.982 129.094 126.094C129.17 126.204 129.266 126.295 129.384 126.369C129.501 126.441 129.624 126.501 129.753 126.548C129.882 126.594 130 126.631 130.108 126.659L130.699 126.818C130.85 126.858 131.019 126.913 131.205 126.983C131.392 127.053 131.571 127.149 131.741 127.27C131.914 127.389 132.056 127.543 132.168 127.73C132.279 127.918 132.335 128.148 132.335 128.42C132.335 128.735 132.253 129.019 132.088 129.273C131.925 129.527 131.687 129.728 131.372 129.878C131.06 130.027 130.68 130.102 130.233 130.102C129.816 130.102 129.455 130.035 129.151 129.901C128.848 129.766 128.609 129.579 128.435 129.338C128.262 129.098 128.165 128.818 128.142 128.5H128.869C128.888 128.72 128.962 128.902 129.091 129.045C129.222 129.187 129.386 129.294 129.585 129.364C129.786 129.432 130.002 129.466 130.233 129.466C130.502 129.466 130.743 129.422 130.957 129.335C131.171 129.246 131.341 129.123 131.466 128.966C131.591 128.807 131.653 128.621 131.653 128.409C131.653 128.216 131.599 128.059 131.491 127.938C131.384 127.816 131.241 127.718 131.065 127.642C130.889 127.566 130.699 127.5 130.494 127.443L129.778 127.239C129.324 127.108 128.964 126.921 128.699 126.679C128.434 126.437 128.301 126.119 128.301 125.727C128.301 125.402 128.389 125.117 128.565 124.875C128.743 124.631 128.982 124.441 129.281 124.307C129.582 124.17 129.919 124.102 130.29 124.102C130.665 124.102 130.998 124.17 131.29 124.304C131.581 124.437 131.813 124.618 131.983 124.849C132.155 125.08 132.246 125.343 132.256 125.636H131.574ZM133.494 130V124.182H137.005V124.807H134.198V126.773H136.823V127.398H134.198V129.375H137.05V130H133.494ZM138.275 130V124.182H140.309C140.714 124.182 141.049 124.252 141.312 124.392C141.575 124.53 141.771 124.717 141.9 124.952C142.029 125.185 142.093 125.443 142.093 125.727C142.093 125.977 142.049 126.184 141.96 126.347C141.872 126.509 141.757 126.638 141.613 126.733C141.471 126.828 141.317 126.898 141.15 126.943V127C141.328 127.011 141.507 127.074 141.687 127.188C141.867 127.301 142.017 127.464 142.138 127.676C142.26 127.888 142.32 128.148 142.32 128.455C142.32 128.746 142.254 129.009 142.121 129.241C141.989 129.474 141.78 129.659 141.494 129.795C141.208 129.932 140.835 130 140.377 130H138.275ZM138.979 129.375H140.377C140.837 129.375 141.164 129.286 141.357 129.108C141.552 128.928 141.65 128.71 141.65 128.455C141.65 128.258 141.6 128.076 141.499 127.909C141.399 127.741 141.256 127.606 141.07 127.506C140.885 127.403 140.665 127.352 140.411 127.352H138.979V129.375ZM138.979 126.739H140.286C140.498 126.739 140.69 126.697 140.86 126.614C141.032 126.53 141.169 126.413 141.269 126.261C141.371 126.11 141.423 125.932 141.423 125.727C141.423 125.472 141.334 125.255 141.156 125.077C140.978 124.897 140.695 124.807 140.309 124.807H138.979V126.739ZM143.717 130H142.978L145.114 124.182H145.842L147.978 130H147.239L145.501 125.102H145.455L143.717 130ZM143.989 127.727H146.967V128.352H143.989V127.727ZM148.884 130V124.182H149.589V129.375H152.293V130H148.884ZM153.384 130V124.182H154.089V129.375H156.793V130H153.384ZM164.816 126H164.112C164.07 125.797 163.997 125.619 163.893 125.466C163.79 125.312 163.665 125.184 163.518 125.08C163.372 124.973 163.21 124.894 163.032 124.841C162.854 124.788 162.668 124.761 162.475 124.761C162.123 124.761 161.804 124.85 161.518 125.028C161.234 125.206 161.007 125.469 160.839 125.815C160.672 126.162 160.589 126.587 160.589 127.091C160.589 127.595 160.672 128.02 160.839 128.366C161.007 128.713 161.234 128.975 161.518 129.153C161.804 129.331 162.123 129.42 162.475 129.42C162.668 129.42 162.854 129.394 163.032 129.341C163.21 129.288 163.372 129.209 163.518 129.105C163.665 128.999 163.79 128.869 163.893 128.716C163.997 128.561 164.07 128.383 164.112 128.182H164.816C164.763 128.479 164.666 128.745 164.526 128.98C164.386 129.215 164.212 129.415 164.004 129.58C163.795 129.742 163.561 129.866 163.302 129.952C163.044 130.037 162.769 130.08 162.475 130.08C161.979 130.08 161.538 129.958 161.151 129.716C160.765 129.473 160.461 129.129 160.239 128.682C160.018 128.235 159.907 127.705 159.907 127.091C159.907 126.477 160.018 125.947 160.239 125.5C160.461 125.053 160.765 124.708 161.151 124.466C161.538 124.223 161.979 124.102 162.475 124.102C162.769 124.102 163.044 124.145 163.302 124.23C163.561 124.315 163.795 124.44 164.004 124.605C164.212 124.768 164.386 124.967 164.526 125.202C164.666 125.435 164.763 125.701 164.816 126ZM165.955 130V124.182H166.659V129.375H169.364V130H165.955ZM174.273 124.182H174.977V128.034C174.977 128.432 174.884 128.787 174.696 129.099C174.51 129.41 174.248 129.655 173.909 129.835C173.57 130.013 173.172 130.102 172.716 130.102C172.259 130.102 171.862 130.013 171.523 129.835C171.184 129.655 170.92 129.41 170.733 129.099C170.547 128.787 170.455 128.432 170.455 128.034V124.182H171.159V127.977C171.159 128.261 171.222 128.514 171.347 128.736C171.472 128.955 171.65 129.129 171.881 129.256C172.114 129.381 172.392 129.443 172.716 129.443C173.04 129.443 173.318 129.381 173.551 129.256C173.784 129.129 173.962 128.955 174.085 128.736C174.21 128.514 174.273 128.261 174.273 127.977V124.182ZM176.384 130V124.182H178.418C178.824 124.182 179.158 124.252 179.421 124.392C179.684 124.53 179.88 124.717 180.009 124.952C180.138 125.185 180.202 125.443 180.202 125.727C180.202 125.977 180.158 126.184 180.069 126.347C179.982 126.509 179.866 126.638 179.722 126.733C179.58 126.828 179.426 126.898 179.259 126.943V127C179.437 127.011 179.616 127.074 179.796 127.188C179.976 127.301 180.127 127.464 180.248 127.676C180.369 127.888 180.43 128.148 180.43 128.455C180.43 128.746 180.363 129.009 180.231 129.241C180.098 129.474 179.889 129.659 179.603 129.795C179.317 129.932 178.945 130 178.487 130H176.384ZM177.089 129.375H178.487C178.947 129.375 179.273 129.286 179.467 129.108C179.662 128.928 179.759 128.71 179.759 128.455C179.759 128.258 179.709 128.076 179.609 127.909C179.508 127.741 179.365 127.606 179.18 127.506C178.994 127.403 178.774 127.352 178.521 127.352H177.089V129.375ZM177.089 126.739H178.396C178.608 126.739 178.799 126.697 178.969 126.614C179.142 126.53 179.278 126.413 179.379 126.261C179.481 126.11 179.532 125.932 179.532 125.727C179.532 125.472 179.443 125.255 179.265 125.077C179.087 124.897 178.805 124.807 178.418 124.807H177.089V126.739Z" fill="white"/>
</svg>
